<?xml version="1.0" encoding="utf-8"?>
<svg viewBox="1.605 -0.913 120.632 41.2" xmlns="http://www.w3.org/2000/svg" xmlns:bx="https://boxy-svg.com">
  <defs>
    <style bx:fonts="ADLaM Display">@import url(https://fonts.googleapis.com/css2?family=ADLaM+Display%3Aital%2Cwght%400%2C400&amp;display=swap);</style>
  </defs>
  <g transform="matrix(0.004954999778419733, 0, 0, -0.0049760001711547375, 2.1046841458184318, 39.49453031263545)" fill="#000000" stroke="none">
    <path d="M3755 8073 c-98 -7 -368 -43 -468 -64 -263 -53 -476 -115 -706 -206&#10;-529 -209 -983 -506 -1381 -904 -1176 -1176 -1506 -2948 -833 -4469 560 -1265&#10;1746 -2159 3123 -2354 344 -49 799 -49 1140 0 672 96 1320 364 1855 768 320&#10;241 633 562 866 888 653 912 891 2073 654 3176 -168 779 -555 1473 -1136 2037&#10;-672 652 -1534 1043 -2479 1125 -106 9 -517 11 -635 3z m620 -273 c800 -73&#10;1503 -365 2120 -879 119 -99 351 -332 452 -453 198 -237 353 -477 493 -763&#10;185 -376 287 -710 352 -1145 20 -139 23 -191 22 -505 0 -327 -1 -361 -26 -520&#10;-89 -575 -273 -1064 -575 -1524 -629 -959 -1629 -1564 -2786 -1687 -195 -20&#10;-661 -15 -842 10 -624 87 -1142 284 -1650 627 -387 261 -747 624 -1013 1021&#10;-333 497 -534 1052 -608 1673 -24 206 -24 603 0 810 105 890 484 1664 1118&#10;2281 637 619 1433 979 2343 1057 94 8 499 6 600 -3z" style="fill: rgb(209, 0, 0);"/>
    <path d="M3417 7600 c-22 -18 -35 -20 -67 -15 -34 6 -43 3 -65 -19 -26 -26&#10;-33 -56 -14 -56 7 0 17 8 24 17 9 13 26 16 68 14 50 -2 58 1 72 23 9 14 15 32&#10;13 41 -3 15 -6 14 -31 -5z" style="fill: rgb(209, 0, 0);"/>
    <path d="M3923 7543 l-113 -4 0 -34 0 -35 64 0 63 0 8 -170 7 -170 39 0 39 0&#10;0 175 0 175 60 0 60 0 0 35 0 35 -57 -2 c-32 -1 -109 -4 -170 -5z" style="fill: rgb(209, 0, 0);"/>
    <path d="M4247 7368 c-10 -95 -21 -187 -24 -204 -4 -30 -3 -32 32 -38 20 -4&#10;40 -5 43 -1 3 3 11 45 16 93 12 98 0 90 119 77 l59 -7 -7 -76 c-4 -42 -9 -85&#10;-11 -94 -4 -14 1 -18 18 -18 13 0 32 -3 44 -6 19 -5 21 2 37 163 10 92 20 187&#10;24 211 l6 42 -41 0 c-46 0 -45 1 -56 -94 -4 -27 -8 -51 -11 -54 -2 -2 -39 -1&#10;-82 4 l-78 9 4 55 c7 115 10 105 -34 108 l-40 3 -18 -173z" style="fill: rgb(209, 0, 0);"/>
    <path d="M3488 7503 c-36 -6 -42 -15 -63 -111 -10 -46 -21 -85 -25 -87 -4 -2&#10;-33 32 -65 75 -39 53 -64 79 -74 76 -9 -3 -31 -7 -49 -11 l-32 -7 77 -89 c111&#10;-128 120 -143 134 -221 l12 -70 36 7 c20 4 38 8 40 10 2 3 -2 39 -9 82 -14 83&#10;-16 74 66 336 5 17 4 18 -48 10z" style="fill: rgb(209, 0, 0);"/>
    <path d="M4747 7473 c-17 -28 -77 -310 -72 -334 15 -69 91 -118 182 -119 65 0&#10;98 15 122 54 16 25 91 288 91 317 0 8 -71 31 -78 25 -2 -2 -20 -70 -41 -152&#10;-41 -159 -50 -174 -108 -174 -39 0 -83 37 -83 70 0 17 47 218 66 282 5 16 1&#10;18 -58 34 -9 3 -18 1 -21 -3z" style="fill: rgb(209, 0, 0);"/>
    <path d="M5316 7406 c-38 -24 -38 -24 -16 -36 17 -9 29 -9 47 -1 31 14 43 14&#10;43 -2 0 -20 22 -44 47 -51 21 -7 21 -7 5 43 -12 40 -22 52 -45 61 -38 13 -35&#10;13 -81 -14z" style="fill: rgb(209, 0, 0);"/>
    <path d="M3033 7397 c-43 -16 -45 -18 -93 -129 -24 -54 -45 -96 -49 -94 -3 2&#10;-17 36 -31 76 -24 70 -25 71 -55 66 -16 -4 -33 -10 -38 -15 -9 -9 106 -364&#10;124 -385 4 -4 23 -3 43 4 40 13 40 15 10 89 -17 42 -18 72 -1 94 11 16 20 12&#10;102 -48 93 -68 93 -67 160 -41 l30 12 -71 50 c-39 27 -93 65 -122 84 -28 19&#10;-52 38 -52 43 0 4 23 52 50 107 51 102 51 108 -7 87z" style="fill: rgb(209, 0, 0);"/>
    <path d="M5174 7172 c-185 -210 -171 -187 -122 -203 40 -13 41 -13 70 20 l30&#10;34 72 -29 71 -30 -1 -46 c0 -45 1 -47 40 -62 22 -9 41 -15 42 -13 1 1 6 101&#10;10 222 l7 220 -46 17 -45 16 -128 -146z m138 -39 c-2 -43 -8 -82 -12 -86 -4&#10;-5 -29 0 -55 12 l-47 21 54 64 c29 36 55 65 58 65 3 1 4 -34 2 -76z" style="fill: rgb(209, 0, 0);"/>
    <path d="M5576 7162 c-14 -28 -14 -28 40 -57 36 -20 53 -34 49 -43 -3 -8 -39&#10;-75 -80 -148 -41 -74 -75 -138 -75 -142 0 -5 16 -16 34 -25 l35 -16 32 57 c17&#10;31 54 98 82 147 28 50 52 92 53 94 2 2 28 -11 58 -28 l56 -31 16 31 c8 17 14&#10;32 12 34 -8 7 -285 155 -291 155 -3 0 -13 -13 -21 -28z" style="fill: rgb(209, 0, 0);"/>
    <path d="M2406 7135 c-10 -8 -23 -16 -29 -18 -6 -2 22 -59 62 -126 39 -68 70&#10;-125 69 -127 -2 -1 -66 33 -142 77 -76 43 -142 79 -148 79 -16 0 -68 -33 -68&#10;-44 0 -5 46 -87 102 -182 l102 -174 30 19 c17 10 30 22 29 27 -1 5 -31 60 -68&#10;123 -36 62 -64 116 -61 118 3 3 68 -31 146 -76 l141 -80 34 16 c19 9 35 21 35&#10;26 0 13 -202 357 -209 357 -3 0 -15 -7 -25 -15z" style="fill: rgb(209, 0, 0);"/>
    <path d="M1828 6909 c-24 -18 -28 -28 -28 -71 0 -50 0 -50 23 -36 13 9 23 28&#10;25 47 3 30 5 31 35 26 25 -5 37 -2 51 13 17 20 17 20 -16 27 -18 3 -40 8 -48&#10;10 -8 2 -27 -5 -42 -16z" style="fill: rgb(209, 0, 0);"/>
    <path d="M1909 6809 c-62 -49 -115 -93 -117 -98 -4 -12 237 -321 250 -321 7 0&#10;205 148 241 180 5 4 -2 19 -15 34 l-23 26 -90 -69 c-49 -38 -92 -68 -96 -65&#10;-4 2 -21 22 -38 43 l-31 39 80 61 c44 34 80 66 80 70 0 9 -34 41 -43 41 -4 0&#10;-39 -25 -78 -55 -40 -31 -77 -54 -82 -52 -6 2 -21 17 -34 34 l-23 30 84 64&#10;c47 35 85 68 86 72 0 5 -8 19 -18 32 l-18 23 -115 -89z" style="fill: rgb(209, 0, 0);"/>
    <path d="M5132 6855 c-11 -23 -9 -27 14 -35 37 -14 44 -13 53 13 18 44 -47 66&#10;-67 22z" style="fill: rgb(209, 0, 0);"/>
    <path d="M6013 6702 l-132 -157 21 -22 c12 -13 26 -23 32 -23 9 0 184 197 208&#10;234 4 6 9 8 12 6 2 -3 -31 -71 -73 -152 l-78 -147 26 -25 c15 -14 30 -26 34&#10;-26 4 0 67 45 140 99 72 55 133 98 136 96 2 -2 -44 -59 -102 -127 l-106 -123&#10;21 -22 c12 -13 27 -23 33 -23 13 0 265 294 265 309 0 16 -82 81 -94 74 -6 -4&#10;-63 -46 -126 -93 -63 -47 -121 -90 -128 -94 -8 -5 21 60 64 145 l77 152 -44&#10;38 c-24 21 -46 38 -49 38 -3 0 -64 -70 -137 -157z" style="fill: rgb(209, 0, 0);"/>
    <path d="M1657 6592 l-26 -27 142 -152 142 -152 29 29 29 29 -38 43 c-66 73&#10;-242 258 -247 258 -2 0 -16 -12 -31 -28z" style="fill: rgb(209, 0, 0);"/>
    <path d="M3815 6593 c-85 -8 -293 -45 -384 -68 -343 -87 -710 -271 -987 -495&#10;-43 -35 -129 -114 -190 -175 -388 -387 -629 -860 -721 -1420 -26 -158 -26&#10;-593 0 -750 95 -570 326 -1024 722 -1420 421 -421 950 -674 1543 -736 167 -17&#10;525 -7 675 20 266 47 478 116 712 230 261 128 476 282 680 486 402 402 644&#10;895 727 1480 17 120 17 512 -1 635 -99 706 -450 1302 -1014 1723 -352 263&#10;-776 430 -1226 482 -114 14 -427 18 -536 8z m313 -778 c2 -181 5 -221 17 -228&#10;19 -10 19 -36 0 -43 -12 -5 -15 -24 -15 -84 l0 -78 38 -7 c85 -15 176 -76 209&#10;-138 22 -44 12 -110 -24 -155 -17 -22 -57 -51 -98 -72 -63 -32 -78 -35 -171&#10;-38 -132 -5 -219 18 -286 77 -55 49 -72 87 -66 145 10 84 82 146 208 177 l65&#10;17 3 76 c2 61 0 76 -12 76 -15 0 -29 27 -20 41 3 5 12 9 20 9 12 0 14 18 12&#10;103 l-3 102 -40 -2 c-22 -1 -55 0 -72 3 -29 4 -33 9 -33 34 0 29 1 30 50 30&#10;43 0 50 3 50 20 0 17 -7 20 -50 20 -49 0 -50 1 -50 30 l0 30 75 0 75 0 0 40 0&#10;41 58 -3 57 -3 3 -220z m-835 -1312 c3 -5 -93 -163 -212 -353 -120 -190 -283&#10;-450 -364 -579 -81 -129 -144 -237 -140 -241 4 -4 51 -12 103 -19 396 -50 780&#10;-207 1022 -419 122 -106 249 -264 308 -382 l22 -45 -68 66 c-292 280 -609 427&#10;-1059 491 -129 19 -581 15 -764 -6 -80 -8 -145 -15 -147 -13 -1 1 154 265 345&#10;587 190 322 371 627 401 679 80 137 157 194 302 226 68 14 244 20 251 8z m312&#10;-30 c145 -45 248 -107 356 -213 l96 -95 84 78 c163 152 369 260 498 261 l45 1&#10;112 -180 c420 -678 494 -798 494 -806 0 -5 -12 -11 -27 -15 -281 -64 -590&#10;-190 -778 -316 -155 -104 -313 -274 -391 -422 l-36 -68 -33 60 c-170 319 -539&#10;562 -1088 717 -66 19 -96 32 -93 40 3 10 390 633 593 958 28 44 26 44 168 0z&#10;m1466 23 c124 -27 230 -99 286 -196 11 -19 188 -318 393 -663 205 -346 370&#10;-630 367 -633 -3 -3 -40 -1 -83 5 -44 6 -144 15 -224 21 -721 50 -1235 -100&#10;-1627 -474 -51 -48 -93 -83 -93 -77 0 20 97 169 159 244 253 310 658 513 1166&#10;586 81 11 129 22 128 29 -2 6 -45 78 -97 159 -270 424 -626 995 -626 1004 0&#10;14 176 11 251 -5z" style="fill: rgb(209, 0, 0);"/>
    <path d="M3980 5301 c-81 -25 -130 -73 -130 -129 0 -27 8 -42 35 -68 66 -62&#10;206 -75 300 -29 118 57 108 166 -21 214 -55 21 -136 26 -184 12z" style="fill: rgb(209, 0, 0);"/>
    <path d="M1521 6460 l-22 -31 22 -37 c13 -20 52 -81 87 -136 35 -54 62 -100&#10;60 -102 -2 -1 -68 29 -148 67 l-144 70 -30 -31 c-24 -24 -28 -32 -17 -39 41&#10;-26 384 -162 396 -157 8 3 21 16 30 29 15 23 12 30 -91 210 -59 103 -110 187&#10;-113 187 -4 0 -17 -14 -30 -30z" style="fill: rgb(209, 0, 0);"/>
    <path d="M6692 6483 c-38 -4 -41 -6 -32 -24 8 -13 21 -19 45 -19 34 0 35 -1&#10;35 -39 0 -22 6 -44 15 -51 20 -16 21 -14 29 40 6 39 3 48 -19 73 -14 15 -27&#10;26 -28 25 -1 -1 -21 -3 -45 -5z" style="fill: rgb(209, 0, 0);"/>
    <path d="M2182 6442 c-21 -16 -21 -19 -7 -40 20 -27 26 -27 56 -3 23 19 24 19&#10;5 40 -23 25 -25 25 -54 3z" style="fill: rgb(209, 0, 0);"/>
    <path d="M6450 6335 c-102 -41 -193 -78 -202 -82 -15 -7 -14 -12 10 -41 l27&#10;-32 44 17 44 17 48 -54 c27 -30 49 -61 49 -68 0 -8 -10 -27 -21 -44 l-21 -29&#10;28 -30 c15 -16 31 -29 34 -29 8 0 210 363 210 376 -1 8 -56 75 -62 74 -2 -1&#10;-86 -34 -188 -75z m148 -33 c-1 -5 -21 -38 -43 -75 l-39 -67 -40 39 c-22 22&#10;-38 42 -36 44 8 7 144 66 153 67 5 0 7 -4 5 -8z" style="fill: rgb(209, 0, 0);"/>
    <path d="M6819 6153 c-13 -9 -26 -18 -28 -19 -2 -2 14 -26 34 -54 22 -29 34&#10;-55 28 -58 -5 -4 -69 -47 -141 -96 -73 -49 -132 -94 -132 -99 0 -5 9 -22 20&#10;-37 l20 -28 133 90 c72 50 139 92 147 94 9 3 27 -13 45 -41 33 -50 40 -52 71&#10;-27 l22 17 -93 133 c-50 73 -94 134 -97 137 -2 2 -15 -3 -29 -12z" style="fill: rgb(209, 0, 0);"/>
    <path d="M6283 6078 c-21 -22 -21 -24 -3 -45 22 -28 32 -29 53 -5 15 16 15 20&#10;-6 46 l-22 27 -22 -23z" style="fill: rgb(209, 0, 0);"/>
    <path d="M1148 5931 c-48 -16 -86 -50 -112 -103 -40 -81 -30 -153 30 -213 112&#10;-113 271 -120 341 -15 50 74 51 152 2 214 -26 33 -30 33 -51 -5 -16 -27 -16&#10;-33 -3 -52 23 -33 19 -81 -11 -116 -36 -43 -97 -43 -171 -1 -84 48 -107 120&#10;-57 179 20 24 34 31 63 31 31 0 39 5 55 35 11 19 17 38 14 40 -11 11 -73 14&#10;-100 6z" style="fill: rgb(209, 0, 0);"/>
    <path d="M7000 5544 c-96 -41 -179 -79 -183 -83 -6 -6 3 -42 19 -69 0 -1 70&#10;27 154 63 85 35 155 63 157 61 2 -1 -57 -45 -129 -96 -73 -51 -136 -96 -141&#10;-100 -9 -7 19 -80 31 -80 4 0 81 13 172 30 90 16 165 28 167 27 1 -2 -65 -32&#10;-148 -67 -82 -35 -152 -67 -154 -71 -5 -6 14 -69 20 -69 5 0 379 161 382 164&#10;2 2 -8 28 -22 59 -15 34 -30 55 -37 52 -27 -8 -310 -56 -313 -53 -2 2 56 48&#10;129 101 l134 97 -21 55 c-12 30 -26 55 -32 55 -5 -1 -89 -35 -185 -76z" style="fill: rgb(209, 0, 0);"/>
    <path d="M907 5509 c-72 -38 -118 -149 -96 -232 34 -129 248 -204 352 -124 49&#10;37 78 103 78 173 0 78 -34 127 -120 171 -76 40 -153 44 -214 12z m146 -71 c22&#10;-7 58 -29 79 -49 32 -31 38 -42 38 -78 0 -36 -6 -49 -34 -77 -28 -28 -41 -34&#10;-77 -34 -94 1 -179 68 -179 142 0 32 7 47 34 74 38 38 70 43 139 22z" style="fill: rgb(209, 0, 0);"/>
    <path d="M1260 5240 c-16 -30 -12 -46 15 -58 23 -11 27 -9 36 15 5 14 12 29&#10;14 33 3 5 -8 13 -25 18 -25 9 -31 8 -40 -8z" style="fill: rgb(209, 0, 0);"/>
    <path d="M703 5052 l-10 -40 36 -10 c20 -6 55 -15 77 -21 l42 -11 -20 -78&#10;c-11 -42 -21 -79 -23 -81 -2 -2 -36 4 -75 14 -41 10 -75 14 -80 9 -4 -5 -11&#10;-23 -14 -39 l-7 -30 201 -52 201 -51 10 25 c15 40 7 56 -31 65 -19 5 -58 15&#10;-86 23 l-52 15 20 77 c11 43 21 79 23 81 1 2 39 -6 83 -17 44 -12 85 -21 91&#10;-21 8 0 35 70 28 76 -1 1 -83 23 -182 48 -99 25 -189 49 -201 52 -18 5 -23 0&#10;-31 -34z" style="fill: rgb(209, 0, 0);"/>
    <path d="M7470 5049 c0 -7 8 -18 18 -25 12 -9 17 -26 17 -62 0 -56 17 -82 51&#10;-82 27 0 33 24 9 34 -11 4 -15 20 -15 56 0 37 -5 55 -20 70 -22 22 -60 27 -60&#10;9z" style="fill: rgb(209, 0, 0);"/>
    <path d="M6995 5004 c9 -53 10 -54 59 -54 l43 0 17 -62 c10 -35 19 -70 22 -78&#10;2 -10 -11 -25 -36 -40 -33 -21 -38 -28 -33 -50 16 -65 7 -68 193 56 96 64 179&#10;120 183 124 4 4 3 28 -4 53 -13 53 0 49 -224 67 -71 5 -152 13 -179 16 l-49 6&#10;8 -38z m333 -73 c9 -6 -6 -20 -53 -50 -37 -22 -70 -39 -74 -36 -5 2 -11 17&#10;-14 32 -3 16 -9 36 -12 46 -6 15 0 17 66 17 41 0 80 -4 87 -9z" style="fill: rgb(209, 0, 0);"/>
    <path d="M594 3544 c3 -9 6 -22 6 -29 0 -8 13 -15 33 -17 30 -3 33 -6 43 -58&#10;12 -57 11 -59 -30 -85 -12 -7 -14 -17 -9 -36 l8 -27 133 77 c130 74 133 77&#10;128 105 -4 16 -8 32 -11 35 -5 4 -275 50 -299 51 -4 0 -5 -7 -2 -16z m236 -74&#10;c8 0 -9 -14 -39 -32 -58 -34 -71 -30 -71 23 0 25 1 26 48 18 26 -4 54 -8 62&#10;-9z" style="fill: rgb(209, 0, 0);"/>
    <path d="M7234 3527 c-23 -20 -28 -34 -32 -85 -4 -55 -2 -63 21 -86 28 -28 65&#10;-33 98 -15 11 6 33 39 49 74 30 66 44 78 73 63 34 -17 11 -118 -27 -118 -15 0&#10;-26 -21 -26 -47 0 -12 7 -14 28 -8 86 21 122 162 55 215 -32 25 -84 26 -106 3&#10;-8 -10 -26 -43 -40 -74 -27 -62 -37 -72 -61 -63 -37 14 -25 101 14 111 11 3&#10;20 9 20 13 0 5 3 15 6 24 10 25 -40 20 -72 -7z" style="fill: rgb(209, 0, 0);"/>
    <path d="M810 3290 c-19 -3 -49 -14 -66 -23 -100 -52 -85 -206 24 -236 43 -12&#10;46 -10 38 24 -4 15 -13 25 -25 25 -45 0 -69 81 -34 116 21 20 75 44 102 44 36&#10;0 70 -22 81 -54 9 -25 7 -35 -9 -57 -12 -16 -18 -35 -14 -48 14 -55 73 7 73&#10;78 0 98 -68 151 -170 131z" style="fill: rgb(209, 0, 0);"/>
    <path d="M7156 3238 c-30 -108 -37 -140 -31 -146 6 -6 268 -82 271 -79 1 1 16&#10;48 32 105 l30 103 -21 9 c-20 7 -24 2 -46 -69 -13 -42 -25 -78 -26 -79 -6 -6&#10;-75 19 -75 26 0 4 9 35 19 69 19 62 19 62 -1 69 -25 8 -34 -5 -49 -73 -10 -43&#10;-16 -53 -33 -53 -46 0 -49 12 -28 88 21 74 20 82 -9 82 -13 0 -22 -15 -33 -52z" style="fill: rgb(209, 0, 0);"/>
    <path d="M7086 3008 c-7 -29 -6 -30 94 -67 119 -45 140 -68 104 -119 -21 -30&#10;-48 -28 -156 13 -51 19 -93 33 -94 32 -1 -1 -5 -14 -9 -28 -6 -25 -3 -27 90&#10;-62 124 -47 154 -48 193 -3 51 58 54 141 6 172 -24 16 -197 84 -213 84 -5 0&#10;-11 -10 -15 -22z" style="fill: rgb(209, 0, 0);"/>
    <path d="M745 2950 c-12 -19 15 -49 47 -52 29 -3 35 -9 51 -53 l18 -50 -24&#10;-20 c-23 -18 -24 -23 -14 -48 l12 -28 115 96 c63 53 116 98 118 99 1 2 -3 17&#10;-9 34 l-11 32 -148 0 c-86 0 -151 -4 -155 -10z m245 -46 c0 -7 -11 -16 -62&#10;-55 l-28 -20 -13 33 c-10 23 -11 35 -3 40 14 9 106 10 106 2z" style="fill: rgb(209, 0, 0);"/>
    <path d="M982 2699 l-122 -59 34 -67 c46 -92 65 -108 130 -107 90 1 166 59&#10;166 126 0 41 -56 168 -74 167 -6 0 -66 -27 -134 -60z m143 -39 c23 -45 19 -75&#10;-16 -104 -59 -50 -121 -49 -156 3 -13 19 -23 38 -23 42 0 10 148 88 167 89 7&#10;0 19 -13 28 -30z" style="fill: rgb(209, 0, 0);"/>
    <path d="M6976 2700 c-68 -44 -87 -144 -39 -201 35 -41 96 -68 152 -69 37 0&#10;49 5 81 38 26 26 40 50 45 79 4 29 13 44 26 48 21 7 23 13 11 33 -5 7 -16 10&#10;-25 6 -12 -4 -24 2 -37 19 -48 60 -158 85 -214 47z m124 -52 c46 -24 64 -48&#10;35 -48 -11 0 -15 -7 -13 -22 2 -17 9 -22 25 -20 18 3 22 0 16 -15 -19 -54 -61&#10;-70 -120 -48 -92 35 -112 123 -38 163 29 16 46 15 95 -10z" style="fill: rgb(209, 0, 0);"/>
    <path d="M1135 2423 c-66 -41 -119 -79 -117 -86 7 -23 103 -177 111 -177 5 0&#10;14 7 21 15 10 12 5 26 -29 80 -23 35 -41 66 -41 67 0 10 74 41 77 33 2 -6 18&#10;-34 36 -63 30 -48 35 -51 52 -38 18 13 17 16 -18 75 l-36 61 22 15 c12 8 25&#10;15 29 15 4 0 26 -29 49 -65 36 -57 43 -64 58 -53 9 7 17 13 19 14 3 1 -96 165&#10;-107 175 -3 4 -60 -27 -126 -68z" style="fill: rgb(209, 0, 0);"/>
    <path d="M6829 2449 c-6 -12 -7 -25 -2 -29 4 -5 60 -38 123 -74 105 -60 116&#10;-64 128 -49 7 10 11 22 9 27 -3 10 -225 145 -239 146 -4 0 -12 -9 -19 -21z" style="fill: rgb(209, 0, 0);"/>
    <path d="M6767 2346 c-15 -22 -13 -24 64 -76 43 -29 79 -55 79 -58 0 -2 -52&#10;-3 -116 -1 -110 4 -117 3 -131 -18 -14 -21 -11 -24 107 -103 114 -76 123 -80&#10;136 -63 7 10 13 20 14 23 0 3 -34 27 -75 54 -42 27 -78 53 -82 59 -4 6 37 7&#10;115 2 115 -7 121 -6 131 13 6 12 11 23 11 25 0 3 -54 42 -119 86 l-119 81 -15&#10;-24z" style="fill: rgb(209, 0, 0);"/>
    <path d="M1282 2174 c-103 -77 -111 -86 -100 -104 7 -11 15 -20 19 -20 3 0 39&#10;25 80 56 41 30 83 60 94 66 24 13 25 14 -74 -99 -62 -71 -63 -73 -47 -97 l16&#10;-25 77 35 c107 49 143 64 143 59 0 -3 -39 -34 -87 -70 -49 -37 -88 -71 -88&#10;-77 0 -6 7 -15 16 -21 12 -8 40 8 127 74 62 46 112 86 112 89 -1 3 -12 18 -25&#10;35 l-24 29 -106 -46 c-58 -26 -105 -44 -105 -40 0 4 32 44 70 89 39 45 70 84&#10;70 88 0 9 -43 65 -49 65 -3 -1 -57 -39 -119 -86z" style="fill: rgb(209, 0, 0);"/>
    <path d="M6591 2098 c-13 -21 -11 -25 27 -58 l41 -35 -35 -45 c-20 -25 -37&#10;-46 -38 -47 -1 -1 -22 14 -46 33 l-45 35 -18 -22 c-10 -12 -14 -25 -10 -29 4&#10;-3 56 -46 115 -93 l107 -87 16 22 c15 22 14 24 -34 68 l-51 45 39 44 38 45 50&#10;-42 c48 -40 51 -41 67 -24 9 10 16 21 16 25 0 5 -216 187 -222 187 -2 0 -9&#10;-10 -17 -22z" style="fill: rgb(209, 0, 0);"/>
    <path d="M1570 1906 c-26 -79 -39 -103 -73 -135 -40 -39 -41 -40 -23 -60 18&#10;-20 19 -20 65 18 33 29 62 42 105 51 32 7 74 17 93 24 l35 12 -20 23 -19 24&#10;-63 -21 c-35 -12 -66 -20 -68 -17 -3 2 5 28 17 56 26 63 26 81 2 103 -18 17&#10;-20 14 -51 -78z" style="fill: rgb(209, 0, 0);"/>
    <path d="M6370 1842 c-43 -21 -80 -75 -80 -116 0 -76 88 -166 163 -166 53 0&#10;99 28 120 73 20 41 21 53 6 96 -11 30 -12 31 -30 15 -11 -10 -18 -29 -17 -48&#10;3 -71 -48 -104 -109 -71 -69 37 -97 105 -62 149 17 21 28 27 55 24 21 -1 40 4&#10;54 17 l21 19 -23 13 c-32 17 -57 16 -98 -5z" style="fill: rgb(209, 0, 0);"/>
    <path d="M6129 1619 c-41 -33 -78 -65 -83 -69 -12 -12 174 -231 188 -223 27&#10;16 151 128 150 135 -3 24 -5 28 -15 28 -7 0 -37 -20 -67 -45 -30 -25 -57 -45&#10;-61 -45 -4 0 -18 12 -32 26 l-24 26 55 48 c51 45 54 50 39 65 -15 15 -19 14&#10;-55 -16 -79 -67 -71 -64 -90 -33 l-18 27 57 51 c50 46 55 53 43 69 -13 16 -19&#10;13 -87 -44z" style="fill: rgb(209, 0, 0);"/>
    <path d="M1854 1650 c-37 -15 -94 -81 -105 -122 -27 -100 82 -204 176 -168 69&#10;26 131 117 120 176 -15 84 -117 144 -191 114z m95 -55 c56 -29 57 -91 2 -146&#10;-46 -46 -91 -52 -128 -17 -34 32 -31 79 9 124 47 53 73 62 117 39z" style="fill: rgb(209, 0, 0);"/>
    <path d="M5901 1444 c-82 -58 -90 -67 -80 -85 10 -19 12 -19 32 -5 56 40 51&#10;42 123 -59 37 -52 73 -95 79 -95 19 0 38 28 29 42 -5 7 -35 51 -68 97 l-60 84&#10;30 23 c16 13 32 24 37 24 4 0 2 9 -5 20 -7 11 -16 20 -19 20 -3 0 -47 -29 -98&#10;-66z" style="fill: rgb(209, 0, 0);"/>
    <path d="M2041 1385 c-77 -109 -81 -118 -64 -131 26 -20 29 -18 63 31 17 25&#10;34 45 39 45 4 0 29 -16 56 -35 48 -34 49 -34 63 -14 8 11 12 22 11 23 -2 2&#10;-25 17 -51 35 -27 18 -48 35 -48 39 0 4 9 18 19 32 l19 24 60 -42 c51 -35 62&#10;-40 72 -27 6 8 9 18 6 24 -8 12 -129 99 -149 107 -10 3 -41 -33 -96 -111z" style="fill: rgb(209, 0, 0);"/>
    <path d="M5653 1288 c-21 -10 -22 -15 -16 -79 3 -38 2 -69 -2 -69 -4 0 -30 16&#10;-56 35 -54 39 -66 41 -94 21 -17 -12 -12 -18 66 -68 65 -42 92 -67 113 -102&#10;30 -51 29 -50 57 -36 18 10 18 12 -6 60 -22 43 -25 62 -25 150 0 55 -3 100 -7&#10;99 -5 0 -18 -5 -30 -11z" style="fill: rgb(209, 0, 0);"/>
    <path d="M2455 1263 c-56 -14 -125 -108 -125 -171 0 -43 31 -92 71 -112 49&#10;-26 85 -25 129 1 l34 21 -23 19 c-21 17 -25 17 -44 4 -29 -20 -49 -19 -81 6&#10;-33 26 -34 70 -5 119 28 46 48 59 85 60 35 0 64 -26 64 -58 0 -20 26 -42 49&#10;-42 6 0 11 16 11 35 0 45 -48 101 -98 115 -20 5 -39 9 -42 9 -3 -1 -14 -4 -25&#10;-6z" style="fill: rgb(209, 0, 0);"/>
    <path d="M2648 1024 l-57 -135 25 -10 c14 -5 27 -9 29 -9 1 0 11 23 21 50 10&#10;28 21 50 26 50 21 0 87 -33 92 -46 3 -8 -2 -33 -11 -56 -15 -39 -15 -42 2 -54&#10;20 -15 46 -19 43 -6 -1 4 4 24 11 45 7 22 11 52 7 68 -4 22 -2 29 9 29 26 0&#10;55 38 55 73 0 43 -27 68 -110 102 -36 15 -69 28 -75 31 -5 2 -36 -57 -67 -132z&#10;m165 39 c30 -15 37 -52 12 -73 -11 -9 -25 -8 -65 5 -27 9 -50 21 -50 26 0 6 7&#10;23 16 40 16 32 28 32 87 2z" style="fill: rgb(209, 0, 0);"/>
    <path d="M5388 1149 c-16 -9 -16 -13 3 -56 11 -25 16 -50 12 -54 -4 -4 -29&#10;-17 -55 -28 l-46 -20 -21 50 c-22 49 -33 57 -60 40 -12 -8 -6 -31 40 -138 53&#10;-124 68 -143 97 -124 11 6 9 20 -11 68 l-24 60 44 22 c24 11 49 21 56 21 8 0&#10;24 -25 36 -55 13 -30 27 -55 31 -55 18 0 40 13 40 24 0 21 -105 256 -115 256&#10;-5 -1 -18 -5 -27 -11z" style="fill: rgb(209, 0, 0);"/>
    <path d="M2940 1048 c1 -7 9 -52 19 -99 17 -83 17 -89 1 -143 -10 -31 -15 -56&#10;-11 -56 3 0 16 -3 27 -6 18 -5 24 1 38 43 12 35 37 68 92 124 l76 77 -33 7&#10;c-31 7 -36 4 -80 -46 l-47 -53 -6 37 c-3 20 -8 53 -12 72 -4 26 -12 38 -30 45&#10;-32 13 -34 13 -34 -2z" style="fill: rgb(209, 0, 0);"/>
    <path d="M5005 1007 c-33 -11 -61 -20 -62 -21 -8 -7 91 -276 100 -276 33 1 41&#10;18 29 58 -16 54 -15 60 11 67 81 25 116 67 102 122 -18 73 -69 88 -180 50z&#10;m113 -39 c16 -16 15 -53 0 -65 -7 -6 -28 -15 -46 -21 -30 -10 -34 -9 -41 11&#10;-23 61 -23 65 6 75 39 14 67 14 81 0z" style="fill: rgb(209, 0, 0);"/>
    <path d="M3193 833 c-17 -76 -29 -141 -27 -145 3 -5 16 -8 29 -8 19 0 24 7 30&#10;38 10 59 13 61 72 49 66 -14 98 0 119 49 29 69 -2 114 -94 133 -31 7 -66 15&#10;-77 17 -18 4 -23 -8 -52 -133z m142 63 c38 -16 45 -39 22 -70 -11 -16 -22 -18&#10;-60 -12 -45 7 -47 9 -41 34 16 71 19 73 79 48z" style="fill: rgb(209, 0, 0);"/>
    <path d="M4763 943 c-16 -3 -24 -14 -28 -36 -11 -67 -34 -272 -30 -276 2 -2&#10;16 -1 30 3 17 4 25 13 25 29 0 34 11 43 65 56 44 11 51 11 62 -5 7 -10 13 -21&#10;13 -26 0 -10 41 -10 56 0 13 8 -144 263 -161 261 -5 -1 -20 -4 -32 -6z m61&#10;-125 l27 -47 -36 -7 c-20 -3 -38 -5 -40 -2 -2 2 -1 30 2 61 6 64 8 63 47 -5z" style="fill: rgb(209, 0, 0);"/>
    <path d="M3470 891 c0 -21 19 -31 56 -31 20 0 24 -5 24 -27 0 -25 -10 -97 -25&#10;-190 -6 -31 -4 -33 23 -33 l29 0 19 117 19 118 41 -3 c32 -3 43 1 48 14 4 9 5&#10;19 3 21 -6 5 -178 33 -209 33 -21 0 -28 -5 -28 -19z" style="fill: rgb(209, 0, 0);"/>
    <path d="M4450 888 c-36 -6 -66 -11 -68 -13 -1 -1 5 -51 13 -111 27 -188 23&#10;-176 53 -172 29 3 29 6 16 85 -4 30 -2 32 29 38 67 13 81 5 93 -50 5 -27 15&#10;-50 22 -49 7 1 20 2 31 3 17 1 17 4 5 53 -8 29 -20 59 -28 67 -13 12 -13 17 1&#10;37 18 27 11 85 -12 104 -20 17 -80 20 -155 8z m108 -50 c14 -14 16 -54 2 -63&#10;-5 -3 -32 -9 -60 -12 -49 -6 -50 -5 -50 20 0 14 -3 32 -6 40 -4 11 2 17 23 20&#10;55 8 79 7 91 -5z" style="fill: rgb(209, 0, 0);"/>
    <path d="M3823 869 c-84 -25 -122 -163 -67 -247 33 -51 133 -68 192 -32 59 36&#10;81 142 46 216 -26 55 -104 83 -171 63z m94 -54 c29 -20 43 -74 33 -120 -12&#10;-53 -36 -75 -81 -75 -52 0 -79 35 -79 102 0 41 5 54 29 79 33 32 65 37 98 14z" style="fill: rgb(209, 0, 0);"/>
    <path d="M4113 850 c-41 -25 -63 -68 -63 -125 0 -58 20 -105 55 -133 37 -30&#10;112 -30 149 -1 23 18 27 18 32 5 3 -9 15 -16 26 -16 18 0 20 5 14 31 -3 17 -6&#10;51 -6 75 l0 44 -60 0 c-53 0 -60 -2 -60 -20 0 -16 7 -20 35 -20 40 0 45 -15&#10;16 -51 -27 -34 -86 -32 -117 5 -37 42 -34 118 5 157 36 36 71 37 102 4 25 -25&#10;63 -33 74 -15 4 6 -9 26 -28 45 -31 31 -41 35 -88 35 -36 0 -65 -7 -86 -20z" style="fill: rgb(209, 0, 0);"/>
  </g>
  <text style="fill: rgb(200, 0, 0); font-family: 'ADLaM Display'; font-size: 31px; white-space: pre;" x="46.217" y="29.67" transform="matrix(1, 0, 0, 1, 7.105427357601002e-15, 7.105427357601002e-15)">KMA</text>
</svg>